<?xml version="1.0" encoding="UTF-8"?>
<svg version="1.1" xmlns="http://www.w3.org/2000/svg" width="603" height="603">
<path d="M0 0 C3.07287938 0.01611394 6.14444434 0.00000659 9.21728516 -0.01904297 C23.5248825 -0.03460614 37.43435158 1.23454577 51.57275391 3.39111328 C52.27658203 3.49746094 52.98041016 3.60380859 53.70556641 3.71337891 C117.12585987 13.54090372 184.5363323 47.50673546 226.00244141 97.51611328 C227.11329265 98.84250282 228.26965282 100.13138765 229.45556641 101.39111328 C264.70229665 138.84889302 288.41683008 189.18208879 298.94775391 239.14111328 C299.17438721 240.21466064 299.40102051 241.28820801 299.63452148 242.39428711 C303.32020221 261.09436933 305.08197237 279.76708454 304.96386719 298.81835938 C304.94775325 301.89123875 304.96386059 304.96280371 304.98291016 308.03564453 C304.99847332 322.34324187 303.72932141 336.25271096 301.57275391 350.39111328 C301.46640625 351.09494141 301.36005859 351.79876953 301.25048828 352.52392578 C291.42296347 415.94421925 257.45713172 483.35469167 207.44775391 524.82080078 C206.12136436 525.93165202 204.83247954 527.0880122 203.57275391 528.27392578 C166.11497416 563.52065603 115.7817784 587.23518945 65.82275391 597.76611328 C64.74920654 597.99274658 63.67565918 598.21937988 62.56958008 598.45288086 C43.86949786 602.13856158 25.19678265 603.90033175 6.14550781 603.78222656 C3.07262844 603.76611262 0.00106347 603.78221997 -3.07177734 603.80126953 C-17.37937469 603.8168327 -31.28884377 602.54768079 -45.42724609 600.39111328 C-46.48298828 600.2315918 -46.48298828 600.2315918 -47.56005859 600.06884766 C-110.98035206 590.24132284 -178.39082449 556.2754911 -219.85693359 506.26611328 C-220.96778483 504.93972374 -222.12414501 503.65083891 -223.31005859 502.39111328 C-258.55678884 464.93333354 -282.27132227 414.60013778 -292.80224609 364.64111328 C-293.02887939 363.56756592 -293.2555127 362.49401855 -293.48901367 361.38793945 C-297.17469439 342.68785723 -298.93646456 324.01514202 -298.81835938 304.96386719 C-298.80224544 301.89098781 -298.81835278 298.81942285 -298.83740234 295.74658203 C-298.85296551 281.43898469 -297.5838136 267.52951561 -295.42724609 253.39111328 C-295.32089844 252.68728516 -295.21455078 251.98345703 -295.10498047 251.25830078 C-285.27745565 187.83800731 -251.31162391 120.42753489 -201.30224609 78.96142578 C-199.97585655 77.85057454 -198.68697173 76.69421436 -197.42724609 75.50830078 C-159.96946635 40.26157054 -109.63627059 16.54703711 -59.67724609 6.01611328 C-58.60369873 5.78947998 -57.53015137 5.56284668 -56.42407227 5.3293457 C-37.72399005 1.64366498 -19.05127484 -0.11810518 0 0 Z " fill="#FDFEFD" transform="translate(298.42724609375,-0.39111328125)"/>
<path d="M0 0 C0.63583008 0.21962402 1.27166016 0.43924805 1.92675781 0.66552734 C20.52210212 7.22449427 35.69210503 17.71663124 47 34 C45.58120711 37.41397039 43.99335857 38.9975773 41 41.125 C23.42749772 54.37500574 11.32004264 73.41243733 7.4453125 95.10546875 C6.86655199 100.16708475 6.81581842 105.15954852 6.8125 110.25 C6.80025391 111.22324219 6.78800781 112.19648438 6.77539062 113.19921875 C6.73688383 132.52962768 13.11535207 151.12322828 25.484375 166.02734375 C26.95724704 167.94435504 27.99878101 169.80615251 29 172 C29.66 172 30.32 172 31 172 C32.14065175 173.14065175 33.27761873 174.28516676 34.3984375 175.4453125 C40.94709807 181.80230495 49.29107309 188.09702436 58 191 C49.91860177 221.12801971 33.03219074 249.32930931 13 273 C12.30648438 273.83917969 11.61296875 274.67835938 10.8984375 275.54296875 C2.19639606 285.70560019 -9.36849285 294.98945322 -23 297 C-37.64059139 297.98791601 -48.65200113 294.37632385 -62.125 288.9375 C-88.43114448 278.35690708 -108.73784824 281.65475588 -134.44921875 292.16015625 C-145.96312819 296.84009385 -159.70298428 300.26849494 -171.8828125 295.74609375 C-197.5539908 283.58754666 -214.32141896 256.86349852 -228 233 C-228.39525879 232.3179248 -228.79051758 231.63584961 -229.19775391 230.93310547 C-236.14851297 218.82241969 -241.22192814 206.09850733 -246 193 C-246.32774414 192.1126416 -246.65548828 191.2252832 -246.99316406 190.31103516 C-255.73420587 166.40540645 -260.4494571 141.39769233 -260.375 115.9375 C-260.37445618 115.22721649 -260.37391235 114.51693298 -260.37335205 113.78512573 C-260.24996887 78.43683119 -249.81258257 47.21392296 -224.50976562 22.01733398 C-218.56832919 16.33087096 -212.14717499 12.02132235 -205 8 C-203.99195313 7.42636719 -202.98390625 6.85273438 -201.9453125 6.26171875 C-192.10030347 0.99973117 -181.2083141 -2.55829304 -170 -3 C-168.97777344 -3.0515625 -167.95554687 -3.103125 -166.90234375 -3.15625 C-151.35111804 -3.57702725 -137.87684062 0.33433984 -123.6875 6.125 C-122.29285572 6.68233775 -120.89767391 7.23833236 -119.50195312 7.79296875 C-116.97520408 8.79790313 -114.45281777 9.8116887 -111.93237305 10.83251953 C-97.09539631 16.7396399 -84.85635719 10.76171978 -70.94287109 5.15869141 C-66.69452547 3.48599783 -62.39565884 1.99854259 -58.0625 0.5625 C-57.3725293 0.32837402 -56.68255859 0.09424805 -55.97167969 -0.14697266 C-37.93547697 -6.11645353 -17.98820455 -6.24751621 0 0 Z " fill="#1B1C1B" transform="translate(394,183)"/>
<path d="M0 0 C0.59292827 27.80174778 -7.38938807 50.7217265 -26.875 71.1875 C-40.58713735 84.44612308 -58.01743191 92.23379728 -77.05859375 92.03515625 C-77.69925781 92.02355469 -78.33992188 92.01195312 -79 92 C-79.91332513 68.15206607 -72.80047977 46.99494782 -57.5625 28.5625 C-43.17667641 13.30480831 -21.58298836 -0.51004574 0 0 Z " fill="#1C1D1C" transform="translate(371,83)"/>
<path d="M0 0 C0.33 0 0.66 0 1 0 C1 5.28 1 10.56 1 16 C4.63 16 8.26 16 12 16 C8.68629 18.20914 7.6553979 18.22481553 3.8125 18.125 C2.91144531 18.10695312 2.01039063 18.08890625 1.08203125 18.0703125 C0.39496094 18.04710937 -0.29210937 18.02390625 -1 18 C-1.02698422 15.56242587 -1.04683099 13.12515085 -1.0625 10.6875 C-1.07087891 9.99720703 -1.07925781 9.30691406 -1.08789062 8.59570312 C-1.10307906 5.4516975 -1.00193327 3.00579981 0 0 Z " fill="#282928" transform="translate(293,157)"/>
</svg>
